<svg data-v-14fb3a61="" width="483" height="51" viewBox="0 0 483 51" fill="#fff" class="signature-lv animated"
    xmlns="http://www.w3.org/2000/svg">
    <path d="M8.04612 0.949646H0.938421L0 1.89926V49.8031H24.1389V41.6609H8.04612V0.949646Z" data-v-14fb3a61=""></path>
    <path fill-rule="evenodd" clip-rule="evenodd" d="M53.6416 41.6609C44.7541 41.6609 37.5488 34.3702 37.5488 25.3766C37.5488 16.3831 44.7541 9.09179 53.6416 9.09179C62.5296 9.09179 69.7344 16.3831 69.7344 25.3766C69.7344 34.3702 62.5291 41.6609 53.6416 41.6609ZM53.6416 0.949646C40.3101 0.949646 29.5026 11.8861 29.5026 25.3766C29.5026 38.8667 40.3101 49.8031 53.6416 49.8031C66.9731 49.8031 77.7805 38.8667 77.7805 25.3766C77.7805 11.8861 66.9731 0.949646 53.6416 0.949646Z" data-v-14fb3a61=""></path>
    <path d="M112.647 1.89926L113.586 0.949646H119.755L120.694 1.89926V33.5188C120.694 42.5123 113.489 49.8031 104.601 49.8031C95.7132 49.8031 88.5084 42.5123 88.5084 33.5188V1.89926L89.4474 0.949646H95.6161L96.5551 1.89926V33.5188C96.5551 38.0153 100.157 41.6609 104.601 41.6609C109.045 41.6609 112.647 38.0153 112.647 33.5188V1.89926Z" data-v-14fb3a61=""></path>
    <path d="M136.786 1.89926V49.8031H143.893L144.832 48.8535V0.949646H137.725L136.786 1.89926Z" data-v-14fb3a61=""></path>
    <path d="M169.803 18.493C171.627 19.6858 172.45 20.2234 175.006 21.6448C175.241 21.7757 175.506 21.917 175.794 22.0705C179.018 23.7882 185.131 27.0456 185.131 34.6046C185.131 42.7243 178.425 50.2782 169.776 50.2782C168.664 50.2782 166.654 50.1535 165.149 49.8031C160.914 48.7627 158.342 47.1444 155.561 43.8325L161.596 37.5902L163.674 39.3538C164.614 40.1001 166.672 41.5954 168.636 41.8649C172.619 42.4101 175.291 39.7433 175.811 37.1151C176.221 35.0372 175.702 31.9367 172.391 30.3298C172.391 30.3298 166.422 26.9737 163.808 25.4444C161.144 23.8853 158.31 19.6261 158.31 14.5201C158.31 10.7204 160.03 7.04204 162.803 4.47812C164.949 2.4927 167.883 0.949646 172.458 0.949646C177.153 0.949646 181.607 3.42968 184.058 7.0564L179.364 11.8056H177.889C176.917 9.70535 174.777 8.41333 172.458 8.41333C169.699 8.41333 167.112 10.7135 166.959 13.6382C166.845 15.8356 167.844 17.2127 169.642 18.3875L169.803 18.493Z" data-v-14fb3a61=""></path>
    <path d="M228.514 30.7366L216.31 0.949646H207.593L227.575 49.8031L228.514 50.7533L229.452 49.8031L249.434 0.949646H240.717L228.514 30.7366Z" data-v-14fb3a61=""></path>
    <path d="M281.619 1.89926L282.558 0.949646H288.726L289.665 1.89926V33.5188C289.665 42.5123 282.46 49.8031 273.573 49.8031C264.685 49.8031 257.48 42.5123 257.48 33.5188V1.89926L258.419 0.949646H264.588L265.527 1.89926V33.5188C265.527 38.0153 269.129 41.6609 273.573 41.6609C278.017 41.6609 281.619 38.0153 281.619 33.5188V1.89926Z" data-v-14fb3a61=""></path>
    <path d="M305.758 1.89926V49.8031H312.865L313.804 48.8535V0.949646H306.696L305.758 1.89926Z" data-v-14fb3a61=""></path>
    <path d="M327.214 1.89926V9.09179H335.261V49.8031H343.307V9.09179H350.414L351.353 8.14217V0.949646H328.153L327.214 1.89926Z" data-v-14fb3a61=""></path>
    <path d="M356.717 9.09179V1.89926L357.656 0.949646H380.856V8.14217L379.917 9.09179H372.81V49.8031H364.764V9.09179H356.717Z" data-v-14fb3a61=""></path>
    <path fill-rule="evenodd" clip-rule="evenodd" d="M410.139 41.6609C401.252 41.6609 394.046 34.3702 394.046 25.3766C394.046 16.3831 401.252 9.09179 410.139 9.09179C419.027 9.09179 426.232 16.3831 426.232 25.3766C426.232 34.3702 419.027 41.6609 410.139 41.6609ZM410.139 0.949646C396.808 0.949646 386 11.8861 386 25.3766C386 38.8667 396.808 49.8031 410.139 49.8031C423.471 49.8031 434.278 38.8667 434.278 25.3766C434.278 11.8861 423.471 0.949646 410.139 0.949646Z" data-v-14fb3a61=""></path>
    <path d="M481.836 0.949621H475.668L474.729 1.89924V31.619L443.483 0L442.544 0.949621V48.8535L443.483 49.8031H449.651L450.59 48.8535V18.727L481.3 49.8031H482.775V1.89924L481.836 0.949621Z" data-v-14fb3a61=""></path>
</svg>